<svg xmlns="http://www.w3.org/2000/svg" viewBox="0 0 1000 1220" width="1000" height="1220" font-family="'Inter','Pretendard',-apple-system,BlinkMacSystemFont,'Segoe UI','Malgun Gothic',sans-serif">
  <defs>
    <marker id="ar" viewBox="0 0 10 10" refX="8.5" refY="5" markerWidth="7" markerHeight="7" orient="auto-start-reverse">
      <path d="M0 0 L10 5 L0 10 z" fill="#9aa0aa"/>
    </marker>
    <marker id="arA" viewBox="0 0 10 10" refX="8.5" refY="5" markerWidth="7" markerHeight="7" orient="auto-start-reverse">
      <path d="M0 0 L10 5 L0 10 z" fill="#b26a00"/>
    </marker>
  </defs>
  <rect width="1000" height="1220" fill="#ffffff"/>
  <text x="40" y="44" font-size="21" font-weight="700" fill="#16181d">사용자 시나리오 · User Scenario Flow</text>
  <text x="40" y="66" font-size="12.5" fill="#6b6f78">연구원이 실험 데이터를 업로드해 분석 · 내보내는 전체 흐름 (분기 · 예외 포함)</text>
  <line x1="40" y1="80" x2="960" y2="80" stroke="#e6e7eb"/>

  <g transform="translate(0,6)">
    <rect x="690" y="20" width="14" height="14" rx="3" fill="#ffffff" stroke="#e6e7eb"/><text x="710" y="31" font-size="10" fill="#6b6f78">Process</text>
    <path d="M782 27 L796 20 L810 27 L796 34 Z" fill="#f6f7f9" stroke="#9aa0aa"/><text x="818" y="31" font-size="10" fill="#6b6f78">Decision</text>
    <path d="M884 27 h30" stroke="#b26a00" stroke-width="1.4" stroke-dasharray="5 4"/><text x="920" y="31" font-size="10" fill="#b26a00">No · 예외 흐름</text>
  </g>
  <path d="M530 138 V168" stroke="#9aa0aa" stroke-width="1.4" marker-end="url(#ar)"/>
  <path d="M530 206 V236" stroke="#9aa0aa" stroke-width="1.4" marker-end="url(#ar)"/>
  <path d="M530 274 V304" stroke="#9aa0aa" stroke-width="1.4" marker-end="url(#ar)"/>
  <path d="M530 362 V392" stroke="#9aa0aa" stroke-width="1.4" marker-end="url(#ar)"/>
  <text x="542" y="381" font-size="10.5" font-weight="700" fill="#1c8a46">Yes</text>
  <path d="M530 430 V460" stroke="#9aa0aa" stroke-width="1.4" marker-end="url(#ar)"/>
  <path d="M530 498 V528" stroke="#9aa0aa" stroke-width="1.4" marker-end="url(#ar)"/>
  <path d="M530 586 V616" stroke="#9aa0aa" stroke-width="1.4" marker-end="url(#ar)"/>
  <text x="542" y="605" font-size="10.5" font-weight="700" fill="#1c8a46">Yes</text>
  <path d="M530 654 V684" stroke="#9aa0aa" stroke-width="1.4" marker-end="url(#ar)"/>
  <path d="M530 722 V752" stroke="#9aa0aa" stroke-width="1.4" marker-end="url(#ar)"/>
  <path d="M530 810 V840" stroke="#9aa0aa" stroke-width="1.4" marker-end="url(#ar)"/>
  <text x="542" y="829" font-size="10.5" font-weight="700" fill="#1c8a46">Yes</text>
  <path d="M530 878 V908" stroke="#9aa0aa" stroke-width="1.4" marker-end="url(#ar)"/>
  <path d="M530 966 V996" stroke="#9aa0aa" stroke-width="1.4" marker-end="url(#ar)"/>
  <text x="542" y="985" font-size="10.5" font-weight="700" fill="#1c8a46">Yes</text>
  <path d="M530 1034 V1064" stroke="#9aa0aa" stroke-width="1.4" marker-end="url(#ar)"/>
  <path d="M530 1102 V1132" stroke="#9aa0aa" stroke-width="1.4" marker-end="url(#ar)"/>
  <path d="M360 333 H310 V411 H360" fill="none" stroke="#b26a00" stroke-width="1.4" stroke-dasharray="5 4" marker-end="url(#arA)"/>
  <text x="302" y="325" font-size="9.5" font-weight="600" fill="#b26a00" text-anchor="end">No · ＋ Add Experiment 로 신규 항목 생성</text>
  <path d="M360 557 H310 V479 H360" fill="none" stroke="#b26a00" stroke-width="1.4" stroke-dasharray="5 4" marker-end="url(#arA)"/>
  <text x="302" y="549" font-size="9.5" font-weight="600" fill="#b26a00" text-anchor="end">No · 부족한 데이터 추가 업로드</text>
  <path d="M360 781 H310 V859 H360" fill="none" stroke="#b26a00" stroke-width="1.4" stroke-dasharray="5 4" marker-end="url(#arA)"/>
  <text x="302" y="773" font-size="9.5" font-weight="600" fill="#b26a00" text-anchor="end">No · 값 직접 수정 (초안 편집)</text>
  <path d="M700 937 H750 V703 H700" fill="none" stroke="#b26a00" stroke-width="1.4" stroke-dasharray="5 4" marker-end="url(#arA)"/>
  <text x="758" y="929" font-size="9.5" font-weight="600" fill="#b26a00">No · 설정값 재조정 후 다시 Apply</text>
  <rect x="410" y="96" width="240" height="42" rx="21" fill="#e7ebfb" stroke="#2c4bd4"/>
  <text x="530" y="121.5" font-size="12.5" font-weight="700" fill="#2c4bd4" text-anchor="middle">연구원 · 데이터 분석 시작</text>
  <rect x="360" y="168" width="340" height="38" rx="10" fill="#ffffff" stroke="#e6e7eb"/>
  <rect x="360" y="168" width="4" height="38" rx="2" fill="#2c4bd4"/>
  <text x="530" y="191.5" font-size="11.5" fill="#16181d" text-anchor="middle">Product List 에서 제품 선택</text>
  <rect x="360" y="236" width="340" height="38" rx="10" fill="#ffffff" stroke="#e6e7eb"/>
  <rect x="360" y="236" width="4" height="38" rx="2" fill="#2c4bd4"/>
  <text x="530" y="259.5" font-size="11.5" fill="#16181d" text-anchor="middle">탭 선택 (Feasibility·Prototype·Verification)</text>
  <path d="M530 304 L700 333 L530 362 L360 333 Z" fill="#f6f7f9" stroke="#9aa0aa"/>
  <text x="530" y="337.5" font-size="12" font-weight="600" fill="#16181d" text-anchor="middle">진행할 실험 항목이 있는가?</text>
  <rect x="360" y="392" width="340" height="38" rx="10" fill="#ffffff" stroke="#e6e7eb"/>
  <rect x="360" y="392" width="4" height="38" rx="2" fill="#2c4bd4"/>
  <text x="530" y="415.5" font-size="11.5" fill="#16181d" text-anchor="middle">실험 항목 카드 선택 → 분석 워크스페이스 진입</text>
  <rect x="360" y="460" width="340" height="38" rx="10" fill="#ffffff" stroke="#e6e7eb"/>
  <rect x="360" y="460" width="4" height="38" rx="2" fill="#2c4bd4"/>
  <text x="530" y="483.5" font-size="11.5" fill="#16181d" text-anchor="middle">Raw 데이터 업로드 (Drag &amp; Drop · 5종 유형)</text>
  <path d="M530 528 L700 557 L530 586 L360 557 Z" fill="#f6f7f9" stroke="#9aa0aa"/>
  <text x="530" y="561.5" font-size="12" font-weight="600" fill="#16181d" text-anchor="middle">필요한 데이터 유형이 모두 업로드되었는가?</text>
  <rect x="360" y="616" width="340" height="38" rx="10" fill="#ffffff" stroke="#e6e7eb"/>
  <rect x="360" y="616" width="4" height="38" rx="2" fill="#2c4bd4"/>
  <text x="530" y="639.5" font-size="11.5" fill="#16181d" text-anchor="middle">Amplification Curve Viewer · Well 별 곡선 확인</text>
  <rect x="360" y="684" width="340" height="38" rx="10" fill="#ffffff" stroke="#e6e7eb"/>
  <rect x="360" y="684" width="4" height="38" rx="2" fill="#2c4bd4"/>
  <text x="530" y="707.5" font-size="11.5" fill="#16181d" text-anchor="middle">Fitting Parameter Settings · 추천 설정값 확인</text>
  <path d="M530 752 L700 781 L530 810 L360 781 Z" fill="#f6f7f9" stroke="#9aa0aa"/>
  <text x="530" y="785.5" font-size="12" font-weight="600" fill="#16181d" text-anchor="middle">추천 설정값을 그대로 사용해도 되는가?</text>
  <rect x="360" y="840" width="340" height="38" rx="10" fill="#ffffff" stroke="#e6e7eb"/>
  <rect x="360" y="840" width="4" height="38" rx="2" fill="#2c4bd4"/>
  <text x="530" y="863.5" font-size="11.5" fill="#16181d" text-anchor="middle">Apply → Curve Fitting Analysis 에 결과 반영</text>
  <path d="M530 908 L700 937 L530 966 L360 937 Z" fill="#f6f7f9" stroke="#9aa0aa"/>
  <text x="530" y="941.5" font-size="12" font-weight="600" fill="#16181d" text-anchor="middle">분석 결과(Ct · Call)가 기대와 일치하는가?</text>
  <rect x="360" y="996" width="340" height="38" rx="10" fill="#ffffff" stroke="#e6e7eb"/>
  <rect x="360" y="996" width="4" height="38" rx="2" fill="#2c4bd4"/>
  <text x="530" y="1019.5" font-size="11.5" fill="#16181d" text-anchor="middle">파일 선택 → Export Selected Data to Excel</text>
  <rect x="360" y="1064" width="340" height="38" rx="10" fill="#ffffff" stroke="#e6e7eb"/>
  <rect x="360" y="1064" width="4" height="38" rx="2" fill="#2c4bd4"/>
  <text x="530" y="1087.5" font-size="11.5" fill="#16181d" text-anchor="middle">랩노트 템플릿에 자동 입력 · 기록 완료</text>
  <rect x="410" y="1132" width="240" height="42" rx="21" fill="#e7ebfb" stroke="#2c4bd4"/>
  <text x="530" y="1157.5" font-size="12.5" font-weight="700" fill="#2c4bd4" text-anchor="middle">완료 · 다음 실험 항목 / 제품 목록으로</text>
</svg>
