<svg xmlns="http://www.w3.org/2000/svg" viewBox="0 0 900 600" width="900" height="600" font-family="'Host Grotesk','Pretendard',system-ui,sans-serif">
  <rect width="900" height="600" fill="#FCFCFB"/>
  <rect x="0.5" y="0.5" width="899" height="599" fill="none" stroke="#E6E7EB"/>

  <!-- left: tangled winding path -->
  <path d="M130 175 C 205 130, 215 275, 285 255 S 155 350, 250 380 S 340 270, 355 330"
        fill="none" stroke="#16181D" stroke-width="1.5" opacity="0.5"/>
  <circle cx="130" cy="175" r="5.5" fill="#16181D"/>
  <circle cx="355" cy="330" r="5.5" fill="#16181D"/>

  <!-- arrow -->
  <g stroke="#16181D" stroke-width="1.5" fill="none">
    <line x1="410" y1="262" x2="470" y2="262"/>
    <path d="M462 256 L470 262 L462 268"/>
  </g>

  <!-- right: straight validated path -->
  <line x1="560" y1="262" x2="756" y2="262" stroke="#16181D" stroke-width="1.5"/>
  <g stroke="#16181D" stroke-width="1.5" fill="none">
    <path d="M600 262 l6 7 l12 -16"/>
    <path d="M666 262 l6 7 l12 -16"/>
  </g>
  <g transform="translate(742,250)">
    <circle cx="12" cy="12" r="13" fill="#2C4BD4"/>
    <path d="M6 12 l4 5 l9 -12" fill="none" stroke="#FCFCFB" stroke-width="2"/>
  </g>

  <line x1="48" y1="506" x2="852" y2="506" stroke="#E6E7EB"/>
  <text x="48" y="548" font-size="13" font-weight="600" letter-spacing="0.1em" fill="#16181D">03<tspan fill="#8A8D96" dx="14">COMPLEX DEVICE OPERATION &#8594; SIMPLIFIED, VALIDATED</tspan></text>
  <text x="852" y="548" font-size="13" font-weight="500" fill="#8A8D96" text-anchor="end">2021</text>
</svg>
